<svg width="44" height="36" viewBox="0 0 44 36" fill="none" xmlns="http://www.w3.org/2000/svg">
<path opacity="0.963" fill-rule="evenodd" clip-rule="evenodd" d="M13.3633 1.02052C17.5492 0.707657 20.5427 2.38736 22.3438 6.05958C22.5912 6.73288 22.7773 7.41878 22.9023 8.11719C28.3164 8.14516 33.7305 8.17321 39.1445 8.20118C41.3845 8.65453 42.6879 9.98433 43.0547 12.1904C43.112 18.4893 43.112 24.7881 43.0547 31.0869C42.668 33.3685 41.3073 34.6982 38.9727 35.0762C27.6289 35.1322 16.2852 35.1322 4.94141 35.0762C2.60677 34.6982 1.24609 33.3685 0.859375 31.0869C0.802083 24.7881 0.802083 18.4893 0.859375 12.1904C1.16244 10.1586 2.3226 8.85684 4.33984 8.28516C5.02213 8.17422 5.70963 8.13223 6.40234 8.15919C6.86653 5.06016 8.55663 2.86263 11.4727 1.56641C12.1006 1.33812 12.7309 1.15615 13.3633 1.02052ZM13.793 2.86817C17.6386 2.76512 20.0162 4.52879 20.9258 8.15919C16.7148 8.17321 12.5038 8.15919 8.29297 8.11719C9.01502 5.24182 10.8483 3.49218 13.793 2.86817ZM5.11328 10.0068C5.20369 9.99433 5.28963 10.0083 5.37109 10.0488C4.93266 10.6053 4.66053 11.2352 4.55469 11.9385C4.49739 18.4053 4.49739 24.8721 4.55469 31.3389C4.66675 31.9918 4.91024 32.5937 5.28516 33.1445C3.98254 33.0763 3.16614 32.4183 2.83594 31.1709C2.73756 27.9959 2.69459 24.8184 2.70703 21.6387C2.69486 18.4311 2.73783 15.2258 2.83594 12.0225C3.2082 10.9161 3.96731 10.2442 5.11328 10.0068ZM8.80859 10.0068C18.9522 9.96569 29.0929 10.0077 39.2305 10.1328C40.1673 10.4604 40.7832 11.0903 41.0781 12.0225C41.1984 13.7273 41.2413 15.4351 41.207 17.1455C38.2278 17.1315 35.2486 17.1455 32.2695 17.1875C31.1953 17.4535 30.5222 18.1113 30.25 19.1611C30.1927 20.8129 30.1927 22.4645 30.25 24.1162C30.5351 25.0108 31.1223 25.6407 32.0117 26.0059C35.0726 26.1297 38.1378 26.1716 41.207 26.1318C41.2214 27.6158 41.207 29.0995 41.1641 30.583C41.0841 31.9306 40.3823 32.7845 39.0586 33.1445C29.0634 33.2834 19.066 33.3113 9.06641 33.2285C7.62019 33.0747 6.74649 32.3049 6.44531 30.919C6.38802 24.7321 6.38802 18.5453 6.44531 12.3584C6.73299 11.0835 7.52075 10.2997 8.80859 10.0068ZM32.6992 18.9932C35.5352 18.9932 38.3711 18.9932 41.207 18.9932C41.207 20.7568 41.207 22.5205 41.207 24.2842C38.3084 24.3244 35.4152 24.2824 32.5273 24.1582C32.366 24.0286 32.237 23.8747 32.1406 23.6963C32.0833 22.3246 32.0833 20.9528 32.1406 19.5811C32.2281 19.2859 32.4143 19.0899 32.6992 18.9932Z" fill="#68A19F"/>
</svg>
