<svg width="44" height="43" viewBox="0 0 44 43" fill="none" xmlns="http://www.w3.org/2000/svg">
<g clip-path="url(#clip0_1_31)">
<path opacity="0.946" fill-rule="evenodd" clip-rule="evenodd" d="M23.2461 0.797864C26.0217 0.745963 27.7262 2.03372 28.3594 4.66115C28.5158 7.53444 27.1551 9.2561 24.2774 9.82619C21.646 9.91932 19.9703 8.7296 19.25 6.25685C18.9832 3.30375 20.3152 1.48408 23.2461 0.797864ZM23.7617 2.64552C25.3952 2.84216 26.3119 3.73799 26.5117 5.33302C26.3177 6.90843 25.4153 7.80427 23.8047 8.02052C21.7408 7.68349 20.8815 6.50771 21.2266 4.49318C21.7027 3.37368 22.5478 2.7578 23.7617 2.64552Z" fill="#68A19F"/>
<path opacity="0.946" fill-rule="evenodd" clip-rule="evenodd" d="M32.2695 4.40919C35.4626 4.33868 37.2387 5.8504 37.5976 8.94434C37.4106 11.2964 36.1502 12.7661 33.8164 13.3535C31.0882 13.6236 29.2978 12.4898 28.4453 9.95215C28.0757 7.00432 29.3505 5.15666 32.2695 4.40919ZM32.6133 6.25684C34.7425 6.36405 35.7308 7.45585 35.5781 9.53223C35.0723 11.0044 34.0267 11.6623 32.4414 11.5059C30.8167 11.0041 30.1148 9.92629 30.3359 8.27247C30.7082 7.16609 31.4673 6.49422 32.6133 6.25684Z" fill="#68A19F"/>
<path opacity="0.963" fill-rule="evenodd" clip-rule="evenodd" d="M13.3633 8.02052C17.5492 7.70766 20.5427 9.38736 22.3438 13.0596C22.5912 13.7329 22.7773 14.4188 22.9023 15.1172C28.3164 15.1452 33.7305 15.1732 39.1445 15.2012C41.3845 15.6545 42.6879 16.9843 43.0547 19.1904C43.112 25.4893 43.112 31.7881 43.0547 38.0869C42.668 40.3685 41.3073 41.6982 38.9727 42.0762C27.6289 42.1322 16.2852 42.1322 4.94141 42.0762C2.60677 41.6982 1.24609 40.3685 0.859375 38.0869C0.802083 31.7881 0.802083 25.4893 0.859375 19.1904C1.16244 17.1586 2.3226 15.8568 4.33984 15.2852C5.02213 15.1742 5.70963 15.1322 6.40234 15.1592C6.86653 12.0602 8.55663 9.86263 11.4727 8.56641C12.1006 8.33812 12.7309 8.15615 13.3633 8.02052ZM13.793 9.86817C17.6386 9.76512 20.0162 11.5288 20.9258 15.1592C16.7148 15.1732 12.5038 15.1592 8.29297 15.1172C9.01502 12.2418 10.8483 10.4922 13.793 9.86817ZM5.11328 17.0068C5.20369 16.9943 5.28963 17.0083 5.37109 17.0488C4.93266 17.6053 4.66053 18.2352 4.55469 18.9385C4.49739 25.4053 4.49739 31.8721 4.55469 38.3389C4.66675 38.9918 4.91024 39.5937 5.28516 40.1445C3.98254 40.0763 3.16614 39.4183 2.83594 38.1709C2.73756 34.9959 2.69459 31.8184 2.70703 28.6387C2.69486 25.4311 2.73783 22.2258 2.83594 19.0225C3.2082 17.9161 3.96731 17.2442 5.11328 17.0068ZM8.80859 17.0068C18.9522 16.9657 29.0929 17.0077 39.2305 17.1328C40.1673 17.4604 40.7832 18.0903 41.0781 19.0225C41.1984 20.7273 41.2413 22.4351 41.207 24.1455C38.2278 24.1315 35.2486 24.1455 32.2695 24.1875C31.1953 24.4535 30.5222 25.1113 30.25 26.1611C30.1927 27.8129 30.1927 29.4645 30.25 31.1162C30.5351 32.0108 31.1223 32.6407 32.0117 33.0059C35.0726 33.1297 38.1378 33.1716 41.207 33.1318C41.2214 34.6158 41.207 36.0995 41.1641 37.583C41.0841 38.9306 40.3823 39.7845 39.0586 40.1445C29.0634 40.2834 19.066 40.3113 9.06641 40.2285C7.62019 40.0747 6.74649 39.3049 6.44531 37.919C6.38802 31.7321 6.38802 25.5453 6.44531 19.3584C6.73299 18.0835 7.52075 17.2997 8.80859 17.0068ZM32.6992 25.9932C35.5352 25.9932 38.3711 25.9932 41.207 25.9932C41.207 27.7568 41.207 29.5205 41.207 31.2842C38.3084 31.3244 35.4152 31.2824 32.5273 31.1582C32.366 31.0286 32.237 30.8747 32.1406 30.6963C32.0833 29.3246 32.0833 27.9528 32.1406 26.5811C32.2281 26.2859 32.4143 26.0899 32.6992 25.9932Z" fill="#68A19F"/>
<path opacity="0.947" fill-rule="evenodd" clip-rule="evenodd" d="M34.5039 27.6729C35.9078 27.6588 37.3115 27.6729 38.7148 27.7149C39.4349 28.0584 39.5924 28.5764 39.1875 29.2686C39.1099 29.3694 39.0097 29.4395 38.8867 29.4785C37.3684 29.5345 35.8503 29.5345 34.332 29.4785C33.6059 28.7967 33.6632 28.1948 34.5039 27.6729Z" fill="#68A19F"/>
</g>
<defs>
<clipPath id="clip0_1_31">
<rect width="44" height="43" fill="white"/>
</clipPath>
</defs>
</svg>
